<svg xmlns="http://www.w3.org/2000/svg" xmlns:xlink="http://www.w3.org/1999/xlink" width="500" zoomAndPan="magnify" viewBox="0 0 375 374.999991" height="500" preserveAspectRatio="xMidYMid meet" version="1.0"><defs><clipPath id="a1af99e1a8"><path d="M 112.5 112.5 L 262.5 112.5 L 262.5 262.5 L 112.5 262.5 Z M 112.5 112.5 " clip-rule="nonzero"/></clipPath></defs><g clip-path="url(#a1af99e1a8)"><path fill="#000000" d="M 262.5 187.5 C 262.5 188.726562 262.46875 189.953125 262.410156 191.179688 C 262.347656 192.40625 262.257812 193.628906 262.140625 194.851562 C 262.019531 196.074219 261.867188 197.289062 261.6875 198.503906 C 261.507812 199.71875 261.296875 200.929688 261.058594 202.132812 C 260.820312 203.335938 260.550781 204.53125 260.253906 205.722656 C 259.953125 206.914062 259.625 208.097656 259.269531 209.269531 C 258.914062 210.445312 258.527344 211.609375 258.117188 212.765625 C 257.703125 213.921875 257.261719 215.066406 256.789062 216.203125 C 256.320312 217.335938 255.824219 218.457031 255.300781 219.566406 C 254.773438 220.675781 254.222656 221.773438 253.644531 222.855469 C 253.066406 223.9375 252.460938 225.003906 251.828125 226.058594 C 251.199219 227.109375 250.542969 228.148438 249.859375 229.167969 C 249.179688 230.1875 248.472656 231.191406 247.742188 232.175781 C 247.007812 233.164062 246.253906 234.128906 245.476562 235.078125 C 244.695312 236.027344 243.894531 236.957031 243.070312 237.867188 C 242.246094 238.777344 241.402344 239.664062 240.53125 240.53125 C 239.664062 241.402344 238.777344 242.246094 237.867188 243.070312 C 236.957031 243.894531 236.027344 244.695312 235.078125 245.476562 C 234.128906 246.253906 233.164062 247.007812 232.175781 247.742188 C 231.191406 248.472656 230.1875 249.179688 229.167969 249.859375 C 228.148438 250.542969 227.109375 251.199219 226.058594 251.828125 C 225.003906 252.460938 223.9375 253.066406 222.855469 253.644531 C 221.773438 254.222656 220.675781 254.773438 219.566406 255.300781 C 218.457031 255.824219 217.335938 256.320312 216.203125 256.789062 C 215.066406 257.261719 213.921875 257.703125 212.765625 258.117188 C 211.609375 258.527344 210.445312 258.914062 209.269531 259.269531 C 208.097656 259.625 206.914062 259.953125 205.722656 260.253906 C 204.53125 260.550781 203.335938 260.820312 202.132812 261.058594 C 200.929688 261.296875 199.71875 261.507812 198.503906 261.6875 C 197.289062 261.867188 196.074219 262.019531 194.851562 262.140625 C 193.628906 262.257812 192.40625 262.347656 191.179688 262.410156 C 189.953125 262.46875 188.726562 262.5 187.5 262.5 C 186.273438 262.5 185.046875 262.46875 183.820312 262.410156 C 182.59375 262.347656 181.371094 262.257812 180.148438 262.140625 C 178.925781 262.019531 177.710938 261.867188 176.496094 261.6875 C 175.28125 261.507812 174.070312 261.296875 172.867188 261.058594 C 171.664062 260.820312 170.46875 260.550781 169.277344 260.253906 C 168.085938 259.953125 166.902344 259.625 165.730469 259.269531 C 164.554688 258.914062 163.390625 258.527344 162.234375 258.117188 C 161.078125 257.703125 159.933594 257.261719 158.796875 256.789062 C 157.664062 256.320312 156.542969 255.824219 155.433594 255.300781 C 154.324219 254.773438 153.226562 254.222656 152.144531 253.644531 C 151.0625 253.066406 149.996094 252.460938 148.941406 251.828125 C 147.890625 251.199219 146.851562 250.542969 145.832031 249.859375 C 144.8125 249.179688 143.808594 248.472656 142.824219 247.742188 C 141.835938 247.007812 140.871094 246.253906 139.921875 245.476562 C 138.972656 244.695312 138.042969 243.894531 137.132812 243.070312 C 136.222656 242.246094 135.335938 241.402344 134.46875 240.53125 C 133.597656 239.664062 132.753906 238.777344 131.929688 237.867188 C 131.105469 236.957031 130.304688 236.027344 129.523438 235.078125 C 128.746094 234.128906 127.992188 233.164062 127.257812 232.175781 C 126.527344 231.191406 125.820312 230.1875 125.140625 229.167969 C 124.457031 228.148438 123.800781 227.109375 123.171875 226.058594 C 122.539062 225.003906 121.933594 223.9375 121.355469 222.855469 C 120.777344 221.773438 120.226562 220.675781 119.699219 219.566406 C 119.175781 218.457031 118.679688 217.335938 118.210938 216.203125 C 117.738281 215.066406 117.296875 213.921875 116.882812 212.765625 C 116.46875 211.609375 116.085938 210.445312 115.730469 209.269531 C 115.375 208.097656 115.046875 206.914062 114.746094 205.722656 C 114.449219 204.53125 114.179688 203.335938 113.941406 202.132812 C 113.703125 200.929688 113.492188 199.71875 113.3125 198.503906 C 113.132812 197.289062 112.980469 196.074219 112.859375 194.851562 C 112.742188 193.628906 112.652344 192.40625 112.589844 191.179688 C 112.53125 189.953125 112.5 188.726562 112.5 187.5 C 112.5 186.273438 112.53125 185.046875 112.589844 183.820312 C 112.652344 182.59375 112.742188 181.371094 112.859375 180.148438 C 112.980469 178.925781 113.132812 177.710938 113.3125 176.496094 C 113.492188 175.28125 113.703125 174.070312 113.941406 172.867188 C 114.179688 171.664062 114.449219 170.46875 114.746094 169.277344 C 115.046875 168.085938 115.375 166.902344 115.730469 165.730469 C 116.085938 164.554688 116.46875 163.390625 116.882812 162.234375 C 117.296875 161.078125 117.738281 159.933594 118.210938 158.796875 C 118.679688 157.664062 119.175781 156.542969 119.699219 155.433594 C 120.226562 154.324219 120.777344 153.226562 121.355469 152.144531 C 121.933594 151.0625 122.539062 149.996094 123.171875 148.941406 C 123.800781 147.890625 124.457031 146.851562 125.140625 145.832031 C 125.820312 144.8125 126.527344 143.808594 127.257812 142.824219 C 127.992188 141.835938 128.746094 140.871094 129.523438 139.921875 C 130.304688 138.972656 131.105469 138.042969 131.929688 137.132812 C 132.753906 136.222656 133.597656 135.335938 134.46875 134.46875 C 135.335938 133.597656 136.222656 132.753906 137.132812 131.929688 C 138.042969 131.105469 138.972656 130.304688 139.921875 129.523438 C 140.871094 128.746094 141.835938 127.992188 142.824219 127.257812 C 143.808594 126.527344 144.8125 125.820312 145.832031 125.140625 C 146.851562 124.457031 147.890625 123.800781 148.941406 123.171875 C 149.996094 122.539062 151.0625 121.933594 152.144531 121.355469 C 153.226562 120.777344 154.324219 120.226562 155.433594 119.699219 C 156.542969 119.175781 157.664062 118.679688 158.796875 118.210938 C 159.933594 117.738281 161.078125 117.296875 162.234375 116.882812 C 163.390625 116.46875 164.554688 116.085938 165.730469 115.730469 C 166.902344 115.375 168.085938 115.046875 169.277344 114.746094 C 170.46875 114.449219 171.664062 114.179688 172.867188 113.941406 C 174.070312 113.703125 175.28125 113.492188 176.496094 113.3125 C 177.710938 113.132812 178.925781 112.980469 180.148438 112.859375 C 181.371094 112.742188 182.59375 112.652344 183.820312 112.589844 C 185.046875 112.53125 186.273438 112.5 187.5 112.5 C 188.726562 112.5 189.953125 112.53125 191.179688 112.589844 C 192.40625 112.652344 193.628906 112.742188 194.851562 112.859375 C 196.074219 112.980469 197.289062 113.132812 198.503906 113.3125 C 199.71875 113.492188 200.929688 113.703125 202.132812 113.941406 C 203.335938 114.179688 204.53125 114.449219 205.722656 114.746094 C 206.914062 115.046875 208.097656 115.375 209.269531 115.730469 C 210.445312 116.085938 211.609375 116.46875 212.765625 116.882812 C 213.921875 117.296875 215.066406 117.738281 216.203125 118.210938 C 217.335938 118.679688 218.457031 119.175781 219.566406 119.699219 C 220.675781 120.226562 221.773438 120.777344 222.855469 121.355469 C 223.9375 121.933594 225.003906 122.539062 226.058594 123.171875 C 227.109375 123.800781 228.148438 124.457031 229.167969 125.140625 C 230.1875 125.820312 231.191406 126.527344 232.175781 127.257812 C 233.164062 127.992188 234.128906 128.746094 235.078125 129.523438 C 236.027344 130.304688 236.957031 131.105469 237.867188 131.929688 C 238.777344 132.753906 239.664062 133.597656 240.53125 134.46875 C 241.402344 135.335938 242.246094 136.222656 243.070312 137.132812 C 243.894531 138.042969 244.695312 138.972656 245.476562 139.921875 C 246.253906 140.871094 247.007812 141.835938 247.742188 142.824219 C 248.472656 143.808594 249.179688 144.8125 249.859375 145.832031 C 250.542969 146.851562 251.199219 147.890625 251.828125 148.941406 C 252.460938 149.996094 253.066406 151.0625 253.644531 152.144531 C 254.222656 153.226562 254.773438 154.324219 255.300781 155.433594 C 255.824219 156.542969 256.320312 157.664062 256.789062 158.796875 C 257.261719 159.933594 257.703125 161.078125 258.117188 162.234375 C 258.527344 163.390625 258.914062 164.554688 259.269531 165.730469 C 259.625 166.902344 259.953125 168.085938 260.253906 169.277344 C 260.550781 170.46875 260.820312 171.664062 261.058594 172.867188 C 261.296875 174.070312 261.507812 175.28125 261.6875 176.496094 C 261.867188 177.710938 262.019531 178.925781 262.140625 180.148438 C 262.257812 181.371094 262.347656 182.59375 262.410156 183.820312 C 262.46875 185.046875 262.5 186.273438 262.5 187.5 Z M 262.5 187.5 " fill-opacity="1" fill-rule="nonzero"/></g><path fill="#00239c" d="M 251.785156 187.5 C 251.785156 188.550781 251.761719 189.605469 251.707031 190.65625 C 251.65625 191.707031 251.578125 192.753906 251.476562 193.800781 C 251.371094 194.847656 251.246094 195.890625 251.089844 196.933594 C 250.933594 197.972656 250.753906 199.007812 250.550781 200.042969 C 250.34375 201.074219 250.113281 202.097656 249.859375 203.121094 C 249.601562 204.140625 249.324219 205.15625 249.015625 206.160156 C 248.710938 207.167969 248.382812 208.167969 248.027344 209.15625 C 247.671875 210.148438 247.292969 211.128906 246.890625 212.101562 C 246.488281 213.074219 246.0625 214.035156 245.613281 214.984375 C 245.164062 215.9375 244.691406 216.875 244.195312 217.804688 C 243.699219 218.730469 243.179688 219.648438 242.640625 220.550781 C 242.097656 221.453125 241.535156 222.339844 240.953125 223.214844 C 240.367188 224.089844 239.761719 224.949219 239.132812 225.796875 C 238.507812 226.640625 237.859375 227.46875 237.195312 228.28125 C 236.527344 229.09375 235.839844 229.890625 235.132812 230.671875 C 234.425781 231.449219 233.699219 232.214844 232.957031 232.957031 C 232.214844 233.699219 231.449219 234.425781 230.671875 235.132812 C 229.890625 235.839844 229.09375 236.527344 228.28125 237.195312 C 227.46875 237.859375 226.640625 238.507812 225.796875 239.132812 C 224.949219 239.761719 224.089844 240.367188 223.214844 240.953125 C 222.339844 241.535156 221.453125 242.097656 220.550781 242.640625 C 219.648438 243.179688 218.730469 243.699219 217.804688 244.195312 C 216.875 244.691406 215.9375 245.164062 214.984375 245.613281 C 214.035156 246.0625 213.074219 246.488281 212.101562 246.890625 C 211.128906 247.292969 210.148438 247.671875 209.15625 248.027344 C 208.167969 248.382812 207.167969 248.710938 206.160156 249.015625 C 205.15625 249.324219 204.140625 249.601562 203.121094 249.859375 C 202.097656 250.113281 201.074219 250.34375 200.042969 250.550781 C 199.007812 250.753906 197.972656 250.933594 196.933594 251.089844 C 195.890625 251.246094 194.847656 251.371094 193.800781 251.476562 C 192.753906 251.578125 191.707031 251.65625 190.65625 251.707031 C 189.605469 251.761719 188.550781 251.785156 187.5 251.785156 C 186.449219 251.785156 185.394531 251.761719 184.34375 251.707031 C 183.292969 251.65625 182.246094 251.578125 181.199219 251.476562 C 180.152344 251.371094 179.109375 251.246094 178.066406 251.089844 C 177.027344 250.933594 175.992188 250.753906 174.957031 250.550781 C 173.925781 250.34375 172.898438 250.113281 171.878906 249.859375 C 170.859375 249.601562 169.84375 249.324219 168.839844 249.015625 C 167.832031 248.710938 166.832031 248.382812 165.84375 248.027344 C 164.851562 247.671875 163.871094 247.292969 162.898438 246.890625 C 161.925781 246.488281 160.964844 246.0625 160.015625 245.613281 C 159.0625 245.164062 158.125 244.691406 157.195312 244.195312 C 156.269531 243.699219 155.351562 243.179688 154.449219 242.640625 C 153.546875 242.097656 152.660156 241.535156 151.785156 240.953125 C 150.910156 240.367188 150.050781 239.761719 149.203125 239.132812 C 148.359375 238.507812 147.53125 237.859375 146.71875 237.195312 C 145.902344 236.527344 145.109375 235.839844 144.328125 235.132812 C 143.546875 234.425781 142.785156 233.699219 142.042969 232.957031 C 141.300781 232.214844 140.574219 231.449219 139.867188 230.671875 C 139.160156 229.890625 138.472656 229.09375 137.804688 228.28125 C 137.140625 227.46875 136.492188 226.640625 135.863281 225.796875 C 135.238281 224.949219 134.632812 224.089844 134.046875 223.214844 C 133.464844 222.339844 132.902344 221.453125 132.359375 220.550781 C 131.820312 219.648438 131.300781 218.730469 130.804688 217.804688 C 130.308594 216.875 129.835938 215.9375 129.386719 214.984375 C 128.9375 214.035156 128.511719 213.074219 128.109375 212.101562 C 127.707031 211.128906 127.328125 210.148438 126.972656 209.15625 C 126.617188 208.167969 126.289062 207.167969 125.980469 206.160156 C 125.675781 205.15625 125.394531 204.140625 125.140625 203.121094 C 124.886719 202.097656 124.65625 201.074219 124.449219 200.042969 C 124.246094 199.007812 124.0625 197.972656 123.910156 196.933594 C 123.753906 195.890625 123.628906 194.847656 123.523438 193.800781 C 123.421875 192.753906 123.34375 191.707031 123.292969 190.65625 C 123.238281 189.605469 123.214844 188.550781 123.214844 187.5 C 123.214844 186.449219 123.238281 185.394531 123.292969 184.34375 C 123.34375 183.292969 123.421875 182.246094 123.523438 181.199219 C 123.628906 180.152344 123.753906 179.109375 123.910156 178.066406 C 124.0625 177.027344 124.246094 175.992188 124.449219 174.957031 C 124.65625 173.925781 124.886719 172.898438 125.140625 171.878906 C 125.394531 170.859375 125.675781 169.84375 125.980469 168.839844 C 126.289062 167.832031 126.617188 166.832031 126.972656 165.84375 C 127.328125 164.851562 127.707031 163.871094 128.109375 162.898438 C 128.511719 161.925781 128.9375 160.964844 129.386719 160.015625 C 129.835938 159.0625 130.308594 158.125 130.804688 157.195312 C 131.300781 156.269531 131.820312 155.351562 132.359375 154.449219 C 132.902344 153.546875 133.464844 152.660156 134.046875 151.785156 C 134.632812 150.910156 135.238281 150.050781 135.863281 149.203125 C 136.492188 148.359375 137.140625 147.53125 137.804688 146.71875 C 138.472656 145.902344 139.160156 145.109375 139.867188 144.328125 C 140.574219 143.546875 141.300781 142.785156 142.042969 142.042969 C 142.785156 141.300781 143.546875 140.574219 144.328125 139.867188 C 145.109375 139.160156 145.902344 138.472656 146.71875 137.804688 C 147.53125 137.140625 148.359375 136.492188 149.203125 135.863281 C 150.050781 135.238281 150.910156 134.632812 151.785156 134.046875 C 152.660156 133.464844 153.546875 132.902344 154.449219 132.359375 C 155.351562 131.820312 156.269531 131.300781 157.195312 130.804688 C 158.125 130.308594 159.0625 129.835938 160.015625 129.386719 C 160.964844 128.9375 161.925781 128.511719 162.898438 128.109375 C 163.871094 127.707031 164.851562 127.328125 165.84375 126.972656 C 166.832031 126.617188 167.832031 126.289062 168.839844 125.980469 C 169.84375 125.675781 170.859375 125.394531 171.878906 125.140625 C 172.898438 124.886719 173.925781 124.65625 174.957031 124.449219 C 175.992188 124.246094 177.027344 124.0625 178.066406 123.910156 C 179.109375 123.753906 180.152344 123.628906 181.199219 123.523438 C 182.246094 123.421875 183.292969 123.34375 184.34375 123.292969 C 185.394531 123.238281 186.449219 123.214844 187.5 123.214844 C 188.550781 123.214844 189.605469 123.238281 190.65625 123.292969 C 191.707031 123.34375 192.753906 123.421875 193.800781 123.523438 C 194.847656 123.628906 195.890625 123.753906 196.933594 123.910156 C 197.972656 124.0625 199.007812 124.246094 200.042969 124.449219 C 201.074219 124.65625 202.097656 124.886719 203.121094 125.140625 C 204.140625 125.394531 205.15625 125.675781 206.160156 125.980469 C 207.167969 126.289062 208.167969 126.617188 209.15625 126.972656 C 210.148438 127.328125 211.128906 127.707031 212.101562 128.109375 C 213.074219 128.511719 214.035156 128.9375 214.984375 129.386719 C 215.9375 129.835938 216.875 130.308594 217.804688 130.804688 C 218.730469 131.300781 219.648438 131.820312 220.550781 132.359375 C 221.453125 132.902344 222.339844 133.464844 223.214844 134.046875 C 224.089844 134.632812 224.949219 135.238281 225.796875 135.863281 C 226.640625 136.492188 227.46875 137.140625 228.28125 137.804688 C 229.09375 138.472656 229.890625 139.160156 230.671875 139.867188 C 231.449219 140.574219 232.214844 141.300781 232.957031 142.042969 C 233.699219 142.785156 234.425781 143.546875 235.132812 144.328125 C 235.839844 145.109375 236.527344 145.902344 237.195312 146.71875 C 237.859375 147.53125 238.507812 148.359375 239.132812 149.203125 C 239.761719 150.050781 240.367188 150.910156 240.953125 151.785156 C 241.535156 152.660156 242.097656 153.546875 242.640625 154.449219 C 243.179688 155.351562 243.699219 156.269531 244.195312 157.195312 C 244.691406 158.125 245.164062 159.0625 245.613281 160.015625 C 246.0625 160.964844 246.488281 161.925781 246.890625 162.898438 C 247.292969 163.871094 247.671875 164.851562 248.027344 165.84375 C 248.382812 166.832031 248.710938 167.832031 249.015625 168.839844 C 249.324219 169.84375 249.601562 170.859375 249.859375 171.878906 C 250.113281 172.898438 250.34375 173.925781 250.550781 174.957031 C 250.753906 175.992188 250.933594 177.027344 251.089844 178.066406 C 251.246094 179.109375 251.371094 180.152344 251.476562 181.199219 C 251.578125 182.246094 251.65625 183.292969 251.707031 184.34375 C 251.761719 185.394531 251.785156 186.449219 251.785156 187.5 Z M 251.785156 187.5 " fill-opacity="1" fill-rule="nonzero"/><path fill="#ffffff" d="M 227.714844 152.105469 L 222.644531 162.964844 C 227.5 169.929688 230.355469 178.375 230.355469 187.5 C 230.355469 195.144531 228.355469 202.304688 224.855469 208.519531 L 226.25 224.5 C 235.429688 214.894531 241.070312 201.855469 241.070312 187.519531 C 241.070312 173.929688 236.035156 161.554688 227.714844 152.105469 Z M 192.929688 230.019531 L 192.929688 144.980469 C 197.429688 145.554688 201.714844 146.820312 205.660156 148.679688 L 210.195312 138.964844 C 203.304688 135.730469 195.605469 133.929688 187.5 133.929688 C 179.394531 133.929688 171.695312 135.730469 164.804688 138.964844 L 169.339844 148.679688 C 173.339844 146.804688 177.679688 145.535156 182.230469 144.964844 L 182.230469 230.035156 C 177.980469 229.519531 173.910156 228.355469 170.144531 226.695312 L 169.160156 237.855469 C 174.875 239.929688 181.054688 241.070312 187.5 241.070312 C 193.964844 241.070312 200.179688 239.929688 205.910156 237.820312 L 204.929688 226.660156 C 201.195312 228.339844 197.160156 229.480469 192.929688 230.019531 Z M 147.285156 152.105469 C 138.964844 161.554688 133.929688 173.929688 133.929688 187.5 C 133.929688 201.875 139.589844 214.929688 148.804688 224.535156 L 150.195312 208.589844 C 146.660156 202.375 144.644531 195.179688 144.644531 187.5 C 144.644531 178.375 147.5 169.929688 152.355469 162.980469 Z M 215.660156 165.089844 L 223.644531 147.964844 C 220.945312 145.5 218.019531 143.320312 214.855469 141.445312 L 198.320312 176.945312 L 198.320312 202.304688 L 206.605469 184.535156 L 211.070312 235.625 C 214.714844 233.839844 218.125 231.644531 221.25 229.105469 Z M 176.894531 177.535156 L 160.089844 141.480469 C 156.945312 143.355469 154 145.554688 151.320312 148.019531 L 159.339844 165.214844 L 159.320312 165.519531 L 153.769531 229.105469 C 156.894531 231.644531 160.304688 233.839844 163.945312 235.625 L 168.410156 184.625 L 176.929688 202.894531 L 176.929688 177.535156 Z M 176.894531 177.535156 " fill-opacity="1" fill-rule="nonzero"/></svg>